<svg role="img" viewBox="0 0 24 24" xmlns="http://www.w3.org/2000/svg"><title>Hugging Face</title><path fill="#FFD21E" d="M12.001 0C9.034 0 6.617 2.418 6.617 5.385c0 1.234.416 2.371 1.116 3.274-.658.336-1.121.99-1.121 1.756v7.282c0 1.117.904 2.021 2.02 2.021h7.137c1.116 0 2.02-.904 2.02-2.021v-7.282c0-.766-.463-1.42-1.12-1.756a5.372 5.372 0 0 0 1.116-3.274C17.785 2.418 15.368 0 12.4 0Zm0 1.583c2.097 0 3.803 1.706 3.803 3.802 0 2.097-1.706 3.803-3.803 3.803-2.097 0-3.802-1.706-3.802-3.803 0-2.096 1.705-3.802 3.802-3.802Zm-3.56 9.188h7.137c.239 0 .437.198.437.437v7.282a.44.44 0 0 1-.437.437H8.441a.44.44 0 0 1-.437-.437v-7.282c0-.24.198-.437.437-.437ZM24 12.001a2 2 0 0 0-2 2v3.5a2 2 0 0 0 2 2 2 2 0 0 0 2-2v-3.5a2 2 0 0 0-2-2ZM0 14.001a2 2 0 0 0 2 2 2 2 0 0 0 2-2v-3.5a2 2 0 0 0-2-2 2 2 0 0 0-2 2v3.5Zm9.001 1.5a1.5 1.5 0 0 0 1.5 1.5 1.5 1.5 0 0 0 1.5-1.5 1.5 1.5 0 0 0-1.5-1.5 1.5 1.5 0 0 0-1.5 1.5Zm4 0a1.5 1.5 0 0 0 1.5 1.5 1.5 1.5 0 0 0 1.5-1.5 1.5 1.5 0 0 0-1.5-1.5 1.5 1.5 0 0 0-1.5 1.5Z"/></svg>
